<svg xmlns="http://www.w3.org/2000/svg" viewBox="0 0 256 256"><defs><style>.cls-1{fill:none;}.cls-2{fill:#868686;}</style></defs><g id="레이어_2" data-name="레이어 2"><g id="레이어_1-2" data-name="레이어 1"><rect class="cls-1" width="256" height="256"/><path class="cls-2" d="M163.82,163.06c0,55.16-21,81.48-68.88,78.68-19.32-1.12-37.24-10.08-41.16-24.92-2.8-10.92,1.4-22.4,14-26,15.12-4.2,27.16,7,27.44,21.84q.42,13.44,7.56,13.44c7.28,0,8.4-4.76,8.4-37.52V50.5c0-16.8-.56-23.24-19-23.24-7,0-7.84-11.2.28-11.2h90.16c8.12,0,7.28,11.2.28,11.2-18.48,0-19,6.44-19,23.24Z"/></g></g></svg>